<?xml version="1.0" encoding="UTF-8"?><svg id="b" xmlns="http://www.w3.org/2000/svg" viewBox="0 0 512 512"><defs><style>.d{fill:#685f7d;}.d,.e,.f,.g{stroke-width:0px;}.e{fill:none;}.f{fill:#ff8a53;}.g{fill:#f17d78;}</style></defs><g id="c"><rect class="e" width="512" height="512"/><path class="f" d="M181.57,159.37c36.9,0,86.6-34.42,86.6-96.63h-63.64c0,50.28-53.68,62.74-65.23,62.74h-24.46v67.79h24.46c11.55,0,53.06,12.46,53.06,62.74h63.64c0-62.21-29.42-96.63-74.43-96.63Z"/><rect class="d" x="75.67" y="62.74" width="63.64" height="193.26"/><path class="g" d="M309.06,318.74c-11.55,0-53.06-12.46-53.06-62.74h-63.64c0,62.21,37.53,96.63,74.43,96.63-45.01,0-86.6,34.42-86.6,96.63h63.64c0-50.28,53.68-62.74,65.23-62.74h91.09v-67.79h-91.09Z"/><rect class="d" x="372.69" y="225.45" width="63.64" height="223.82"/><rect class="g" x="75.67" y="256" width="63.64" height="193.26"/><ellipse class="f" cx="365.22" cy="159.37" rx="102.26" ry="99.4"/></g></svg>