<?xml version="1.0" encoding="UTF-8"?>
<svg id="Layer_2" data-name="Layer 2" xmlns="http://www.w3.org/2000/svg" viewBox="0 0 60.96 24">
  <defs>
    <style>
      .cls-1 {
        fill: #685f7d;
      }

      .cls-1, .cls-2, .cls-3, .cls-4 {
        stroke-width: 0px;
      }

      .cls-2 {
        fill: none;
      }

      .cls-3 {
        fill: #ff8a53;
      }

      .cls-4 {
        fill: #f17d78;
      }
    </style>
  </defs>
  <g id="Camada_1" data-name="Camada 1">
    <g>
      <rect class="cls-2" width="60.96" height="24"/>
      <path class="cls-3" d="M9.53,14.54c.86,0,4.88.93,4.88,4.7h4.76c0-4.66-3.11-7.24-6.48-7.24,2.76,0,6.48-2.58,6.48-7.24h-4.76c0,3.76-4.02,4.7-4.88,4.7v5.08Z"/>
      <rect class="cls-1" x="4.76" y="4.76" width="4.76" height="14.47"/>
      <path class="cls-4" d="M51.43,9.46c-.86,0-4.88-.93-4.88-4.7h-4.76c0,4.66,3.72,7.24,6.48,7.24-3.37,0-6.48,2.58-6.48,7.24h4.76c0-3.76,4.02-4.7,4.88-4.7v-5.08Z"/>
      <rect class="cls-1" x="51.43" y="4.76" width="4.76" height="14.47"/>
      <rect class="cls-4" x="35.32" y="4.76" width="4.76" height="14.47"/>
      <ellipse class="cls-3" cx="26.44" cy="12" rx="7.66" ry="7.44"/>
    </g>
  </g>
</svg>