<?xml version="1.0" encoding="UTF-8"?><svg id="b" xmlns="http://www.w3.org/2000/svg" viewBox="0 0 180 52.09"><defs><style>.d{fill:#685f7d;}.d,.e,.f{stroke-width:0px;}.e{fill:#ff8a53;}.f{fill:#f17d78;}</style></defs><g id="c"><path class="e" d="M16.68,34.93c3.03,0,17.09,3.26,17.09,16.44h16.68c0-16.3-10.9-25.32-22.69-25.32,9.67,0,22.69-9.02,22.69-25.32h-16.68c0,13.17-14.07,16.44-17.09,16.44v17.76Z"/><rect class="d" y=".72" width="16.68" height="50.64"/><path class="f" d="M163.32,17.16c-3.03,0-17.09-3.26-17.09-16.44h-16.68c0,16.3,13.02,25.32,22.69,25.32-11.79,0-22.69,9.02-22.69,25.32h16.68c0-13.17,14.07-16.44,17.09-16.44v-17.76Z"/><rect class="d" x="163.32" y=".72" width="16.68" height="50.64"/><rect class="f" x="106.94" y=".72" width="16.68" height="50.64"/><ellipse class="e" cx="75.87" cy="26.05" rx="26.8" ry="26.05"/></g></svg>